<svg width="20" height="20" viewBox="0 0 20 20" fill="none" xmlns="http://www.w3.org/2000/svg">
<path d="M6.75 18.75H12.75H6.75ZM6.75 18.75V13.75V18.75ZM6.75 18.75H1.35C1.01863 18.75 0.75 18.4814 0.75 18.15V14.35C0.75 14.0186 1.01863 13.75 1.35 13.75H6.75V18.75ZM12.75 18.75V6.75V18.75ZM12.75 18.75H18.15C18.4814 18.75 18.75 18.4814 18.75 18.15V1.35C18.75 1.01863 18.4814 0.75 18.15 0.75H13.35C13.0186 0.75 12.75 1.01863 12.75 1.35V6.75V18.75ZM12.75 6.75H7.35C7.01863 6.75 6.75 7.01863 6.75 7.35V13.75" fill="white"/>
<path d="M12.75 6.75H7.35C7.01863 6.75 6.75 7.01863 6.75 7.35V13.75M6.75 18.75H12.75H6.75ZM6.75 18.75V13.75V18.75ZM6.75 18.75H1.35C1.01863 18.75 0.75 18.4814 0.75 18.15V14.35C0.75 14.0186 1.01863 13.75 1.35 13.75H6.75V18.75ZM12.75 18.75V6.75V18.75ZM12.75 18.75H18.15C18.4814 18.75 18.75 18.4814 18.75 18.15V1.35C18.75 1.01863 18.4814 0.75 18.15 0.75H13.35C13.0186 0.75 12.75 1.01863 12.75 1.35V6.75V18.75Z" stroke="white" stroke-width="1.5"/>
</svg>
